<svg id="Layer_1" data-name="Layer 1" xmlns="http://www.w3.org/2000/svg" viewBox="0 0 102.73 118.63"><defs><style>.cls-1{fill:#4d65a6;}.cls-2{fill:#00ceff;}.cls-3{fill:#fff;}</style></defs><title>Program-blue</title><path class="cls-1" d="M611.72,640l-51.37-29.66V551.05l51.37-29.66,51.37,29.66v59.32Zm-46-32.77,46,26.55,46-26.55V554.17l-46-26.55-46,26.55v53.09Z" transform="translate(-560.36 -521.4)"/><path class="cls-2" d="M611.72,615.2a14.22,14.22,0,0,1-7-1.71l-17.9-10.33a15.27,15.27,0,0,1-7-12.13V570.37a15.27,15.27,0,0,1,7-12.13l17.9-10.33a15.21,15.21,0,0,1,14,0l17.9,10.33a15.27,15.27,0,0,1,7,12.13V591a15.27,15.27,0,0,1-7,12.13l-17.9,10.33A14.21,14.21,0,0,1,611.72,615.2Zm0-63.61a8.92,8.92,0,0,0-4.31,1l-17.9,10.33a9.83,9.83,0,0,0-4.31,7.46V591a9.83,9.83,0,0,0,4.31,7.46l17.9,10.33a10.34,10.34,0,0,0,8.61,0l17.9-10.33a9.83,9.83,0,0,0,4.31-7.46V570.37a9.83,9.83,0,0,0-4.31-7.46L616,552.57A8.92,8.92,0,0,0,611.72,551.59Z" transform="translate(-560.36 -521.4)"/><path class="cls-3" d="M611.72,594.89a14.16,14.16,0,1,1,14.16-14.16A14.18,14.18,0,0,1,611.72,594.89Zm0-22.93a8.77,8.77,0,1,0,8.77,8.77A8.78,8.78,0,0,0,611.72,572Z" transform="translate(-560.36 -521.4)"/></svg>