<svg data-name="Layer 1" xmlns="http://www.w3.org/2000/svg" viewBox="0 0 102.73 118.63"><path d="M51.36 118.6L-.01 88.94V29.65L51.36-.01l51.37 29.66v59.32zm-46-32.77l46 26.55 46-26.55V32.77l-46-26.55-46 26.55v53.09z" fill="#4d65a6"/><path d="M51.36 93.8a14.22 14.22 0 0 1-7-1.71l-17.9-10.33a15.27 15.27 0 0 1-7-12.13V48.97a15.27 15.27 0 0 1 7-12.13l17.9-10.33a15.21 15.21 0 0 1 14 0l17.9 10.33a15.27 15.27 0 0 1 7 12.13V69.6a15.27 15.27 0 0 1-7 12.13l-17.9 10.33a14.21 14.21 0 0 1-7 1.74zm0-63.61a8.92 8.92 0 0 0-4.31 1l-17.9 10.33a9.83 9.83 0 0 0-4.31 7.46V69.6a9.83 9.83 0 0 0 4.31 7.46l17.9 10.33a10.34 10.34 0 0 0 8.61 0l17.9-10.33a9.83 9.83 0 0 0 4.31-7.46V48.97a9.83 9.83 0 0 0-4.31-7.46L55.64 31.17a8.92 8.92 0 0 0-4.28-.98z" fill="#00ceff"/><path d="M51.36 73.49a14.16 14.16 0 1 1 14.16-14.16 14.18 14.18 0 0 1-14.16 14.16zm0-22.93a8.77 8.77 0 1 0 8.77 8.77 8.78 8.78 0 0 0-8.77-8.73z" fill="#fff"/></svg>